<?xml version="1.0" standalone="no"?>
<!DOCTYPE svg PUBLIC "-//W3C//DTD SVG 1.1//EN" "http://www.w3.org/Graphics/SVG/1.1/DTD/svg11.dtd" >
<svg xmlns="http://www.w3.org/2000/svg">
<metadata></metadata>
<defs>
<font id="cactusmediumitalic" horiz-adv-x="641" >
<font-face units-per-em="2048" ascent="1638" descent="-410" />
<missing-glyph horiz-adv-x="303" />
<glyph horiz-adv-x="2048" />
<glyph horiz-adv-x="2048" />
<glyph unicode="&#xd;" horiz-adv-x="303" />
<glyph unicode=" "  horiz-adv-x="303" />
<glyph unicode="&#x09;" horiz-adv-x="303" />
<glyph unicode="&#xa0;" horiz-adv-x="303" />
<glyph unicode="!" horiz-adv-x="315" d="M-74 0l78 360h113l-76 -360h-115zM41 438l217 1200h148l-293 -1200h-72z" />
<glyph unicode="&#x22;" horiz-adv-x="610" d="M139 1006l97 632h149l-172 -632h-74zM414 1006l96 632h149l-172 -632h-73z" />
<glyph unicode="#" horiz-adv-x="907" d="M-33 391l39 113h178l56 192h-179l37 113h178l111 391h121l-113 -391h146l110 391h121l-113 -391h181l-37 -113h-180l-56 -192h178l-36 -113h-179l-112 -391h-119l113 391h-146l-110 -391h-119l110 391h-180zM303 504h146l55 192h-146z" />
<glyph unicode="$" d="M-6 342q0 23 8 61l33 152h119l-37 -174q-4 -18 -4 -39q0 -76 90 -76q53 0 92 39q45 47 45 129q0 35 -21 119l-120 498q-20 84 -21 143q0 125 68 207q61 72 153 86l31 151h119l-33 -159q129 -44 129 -187q0 -29 -8 -65l-31 -140h-121l33 146q8 37 8 55q0 80 -88 80 q-53 0 -90 -41q-45 -45 -45 -127q0 -51 16 -119l121 -493q20 -84 21 -148q0 -133 -72 -213q-61 -72 -158 -82l-30 -145h-119l35 160q-123 47 -123 182z" />
<glyph unicode="%" horiz-adv-x="858" d="M82 780l696 189l8 -109l-694 -188zM164 1128q0 33 6 62l55 258q23 106 97 164q68 53 151 53q84 0 143 -51q64 -58 64 -150q0 -33 -6 -61l-56 -256q-23 -106 -96 -166q-66 -53 -149 -53q-86 0 -147.5 54t-61.5 146zM188 174q0 33 7 62l55 258q23 106 96 163q68 53 152 54 q84 0 143 -52q64 -57 64 -149q0 -33 -7 -61l-55 -256q-23 -106 -96 -166q-66 -53 -150 -54q-86 0 -147.5 54.5t-61.5 146.5zM283 1141q0 -92 92 -92q104 0 129 118l51 246q6 29 6 39q0 90 -92 90q-102 0 -129 -119l-53 -243q-4 -18 -4 -39zM307 186q0 -92 92 -92 q104 0 129 119l52 246q6 29 6 39q0 90 -92 90q-102 0 -129 -119l-54 -244q-4 -18 -4 -39z" />
<glyph unicode="&#x26;" horiz-adv-x="716" d="M-47 178q0 86 37 158l233 452l-24 506v29q0 141 59 233q70 109 207 109q88 0 149 -53q68 -60 68 -162q0 -104 -94 -272l-240 -428l14 -394l148 238l96 -49l-219 -348q23 -80 115 -80h10l-25 -117h-16q-125 0 -166 74q-66 -102 -172 -103q-74 0 -127 55.5t-53 151.5z M70 195q0 -102 77 -103q43 0 86 62l27 39l-16 395l-146 -289q-29 -57 -28 -104zM317 1286l13 -340l157 291q74 135 74 205q0 98 -94 98q-150 0 -150 -237v-17z" />
<glyph unicode="'" horiz-adv-x="335" d="M139 1006l97 632h149l-172 -632h-74z" />
<glyph unicode="(" horiz-adv-x="421" d="M-70 18q0 37 7 68l286 1350q49 227 260 227h25l-29 -123h-2q-111 0 -139 -123l-283 -1333q-8 -29 -8 -47q0 -98 94 -98l-24 -121q-84 4 -135.5 58t-51.5 142z" />
<glyph unicode=")" horiz-adv-x="411" d="M-131 -182l29 123h2q113 0 139 122l283 1334q8 39 8 47q0 98 -94 98l24 121q84 -4 135 -58.5t51 -142.5q0 -39 -6 -67l-286 -1350q-49 -227 -260 -227h-25z" />
<glyph unicode="*" horiz-adv-x="864" d="M129 1315l61 125l285 -129l41 327h133l-100 -327l323 129l21 -125l-336 -76l166 -250l-115 -78l-119 283l-227 -281l-94 78l266 248z" />
<glyph unicode="+" horiz-adv-x="737" d="M80 758l24 119h215l64 303h121l-64 -303h217l-26 -119h-215l-64 -303h-123l64 303h-213z" />
<glyph unicode="," horiz-adv-x="294" d="M-193 -272l248 632h146l-303 -632h-91z" />
<glyph unicode="-" horiz-adv-x="565" d="M80 760l24 119h381l-24 -119h-381z" />
<glyph unicode="." horiz-adv-x="299" d="M-82 0l78 360h119l-78 -360h-119z" />
<glyph unicode="/" d="M-150 0l826 1638h125l-828 -1638h-123z" />
<glyph unicode="0" d="M-39 174q0 33 6 62l258 1212q23 106 97 164q68 53 151 53q84 0 143 -51q64 -58 64 -150q0 -33 -6 -61l-258 -1210q-23 -106 -97 -166q-66 -53 -149 -54q-86 0 -147.5 54.5t-61.5 146.5zM80 186q0 -92 92 -92q104 0 129 119l254 1200q6 29 6 39q0 90 -92 90 q-104 0 -129 -119l-256 -1198q-4 -18 -4 -39z" />
<glyph unicode="1" horiz-adv-x="481" d="M96 0l310 1454l-33 -57l-158 -203h-117l346 444h119l-348 -1638h-119z" />
<glyph unicode="2" horiz-adv-x="610" d="M-106 0l610 1266q53 111 53 180q0 96 -90 96q-104 0 -129 -119l-62 -284h-116l63 303q23 109 99 168q68 55 153 55q84 0 141 -51q62 -58 62 -160q0 -92 -66 -227l-534 -1110h319l-24 -117h-479z" />
<glyph unicode="3" d="M-39 174q0 23 8 62l90 421h119l-92 -432q-6 -29 -6 -39q0 -92 92 -92q104 0 129 119l121 561q6 29 6 41q0 115 -111 115q-12 0 -36 -4l-88 -129l-99 47l449 678h-299l24 116h477l-393 -594q197 -23 197 -213q0 -27 -8 -63l-125 -575q-23 -106 -97 -166q-66 -53 -149 -54 q-84 0 -143 54q-66 57 -66 147z" />
<glyph unicode="4" horiz-adv-x="595" d="M-72 379l541 1259h149l-241 -1142h125l-25 -117h-125l-82 -379h-110l82 379h-314zM84 496h182l187 880l-86 -223z" />
<glyph unicode="5" horiz-adv-x="638" d="M-39 174q0 33 6 62l90 421h119l-92 -432q-4 -18 -4 -39q0 -92 92 -92q104 0 129 119l125 586q4 18 4 37q0 92 -92 92q-86 0 -127 -105l-8 -20l-107 28l172 807h443l-25 -116h-326l-108 -508q43 37 108 37q80 0 135.5 -52.5t55.5 -142.5q0 -37 -6 -65l-129 -598 q-23 -106 -97 -166q-66 -53 -149 -54q-86 0 -147.5 54.5t-61.5 146.5z" />
<glyph unicode="6" d="M-39 174q0 31 6 62l258 1212q23 106 97 164q68 53 151 53q84 0 143 -51q64 -58 64 -150q0 -33 -6 -61l-92 -436h-121l94 446q4 20 4 39q0 90 -90 90q-104 0 -129 -119l-129 -600q41 43 108 43q84 0 137.5 -54t53.5 -144q0 -37 -6 -64l-88 -411q-23 -106 -97 -166 q-66 -53 -149 -54q-86 0 -147.5 54.5t-61.5 146.5zM80 186q0 -92 92 -92q102 0 129 119l86 399q4 31 4 39q0 90 -92 90q-104 0 -129 -116l-86 -400q-4 -18 -4 -39z" />
<glyph unicode="7" horiz-adv-x="587" d="M-115 0l654 1522h-318l25 116h465l-701 -1638h-125z" />
<glyph unicode="8" d="M-39 174q0 31 6 62l90 419q29 135 129 174q-57 57 -57 138q0 29 6 59l90 422q23 106 97 164q66 53 149 53q86 0 145 -51q64 -58 64 -150q0 -29 -6 -61l-88 -410q-29 -125 -129 -174q57 -43 57 -129q0 -37 -8 -74l-90 -423q-23 -106 -97 -166q-66 -53 -149 -54 q-86 0 -147.5 54.5t-61.5 146.5zM80 186q0 -92 92 -92q102 0 129 119l90 424q4 25 4 39q0 88 -92 88q-104 0 -129 -117l-90 -422q-4 -18 -4 -39zM244 963q0 -92 92 -93q104 0 129 119l90 424q4 19 4 39q0 90 -92 90q-102 0 -129 -119l-90 -422q-4 -27 -4 -38z" />
<glyph unicode="9" d="M-39 174q0 33 6 62l92 436h121l-94 -447q-4 -18 -4 -39q0 -90 90 -90q104 0 129 119l129 600q-41 -43 -108 -43q-84 0 -137.5 54.5t-53.5 144.5q0 35 6 63l88 412q23 106 97 166q66 53 149 53q86 0 147.5 -54.5t61.5 -146.5q0 -33 -6 -61l-258 -1213 q-23 -106 -93.5 -161.5t-154.5 -55.5t-145.5 54.5t-61.5 146.5zM250 987q0 -90 92 -90q104 0 129 117l86 399q4 19 4 39q0 92 -92 92q-104 0 -129 -119l-86 -399q-4 -18 -4 -39z" />
<glyph unicode=":" horiz-adv-x="301" d="M-70 0l78 360h119l-78 -360h-119zM109 840l77 360h119l-78 -360h-118z" />
<glyph unicode=";" horiz-adv-x="315" d="M-193 -272l250 632h144l-303 -632h-91zM137 840l78 360h119l-78 -360h-119z" />
<glyph unicode="&#x3c;" horiz-adv-x="630" d="M29 786l530 441l72 -92l-432 -359l286 -352l-96 -80z" />
<glyph unicode="=" horiz-adv-x="737" d="M47 600l25 117h551l-25 -117h-551zM113 918l24 116h553l-24 -116h-553z" />
<glyph unicode="&#x3e;" horiz-adv-x="630" d="M-6 436l432 359l-287 352l97 80l360 -443l-530 -440z" />
<glyph unicode="?" d="M45 0l76 360h119l-76 -360h-119zM131 438l375 828q51 109 51 182q0 94 -92 94q-102 0 -127 -119l-62 -284h-116l63 303q23 109 99 168q68 55 153 55q84 0 143.5 -53.5t59.5 -147.5q0 -100 -60 -231l-360 -795h-127z" />
<glyph unicode="@" horiz-adv-x="987" d="M-16 264q0 43 8 82l207 977q35 164 163 256q119 86 279 86q152 0 252 -82t100 -217q0 -39 -8 -78l-172 -823h-68l-16 35q-61 -61 -145 -62q-76 0 -131.5 53.5t-55.5 139.5q0 29 6 57l64 305q23 106 96 166q66 53 150 53q88 0 125 -59l32 150q6 29 7 59q0 184 -234 184 q-117 0 -207 -59q-98 -63 -123 -178l-204 -971q-6 -29 -7 -59q0 -90 62.5 -138.5t171.5 -48.5q117 0 207 60q100 66 123 180l8 43h119l-13 -60q-33 -164 -166 -256q-121 -86 -284 -86q-158 0 -252 79t-94 212zM518 651q0 -90 92 -90q102 0 127 119l60 278q4 19 4 39 q0 92 -90 93q-106 0 -131 -119l-58 -281q-4 -20 -4 -39z" />
<glyph unicode="A" horiz-adv-x="616" d="M-131 0l543 1638h141l-154 -1638h-116l34 346h-221l-112 -346h-115zM131 461h199l98 930l-63 -209z" />
<glyph unicode="B" d="M-82 0l348 1638h228q76 0 128 -55t52 -143q0 -27 -8 -66l-82 -389q-27 -123 -131 -168q61 -45 61 -135q0 -20 -8 -59l-84 -398q-23 -111 -95.5 -168t-164.5 -57h-244zM61 117h107q47 0 88 34.5t53 96.5l82 381q4 18 4 41q0 90 -90 90h-106zM221 870h107q47 0 86 35t53 96 l86 390q4 18 4 41q0 90 -90 90h-107z" />
<glyph unicode="C" d="M-39 174q0 33 6 62l258 1212q23 106 97 164q68 53 151 53q84 0 143 -51q64 -58 64 -150q0 -33 -6 -61l-92 -436h-121l94 446q6 29 6 39q0 90 -92 90q-104 0 -129 -119l-256 -1198q-4 -18 -4 -39q0 -92 92 -92q104 0 129 119l96 459h121l-102 -479q-23 -106 -97 -166 q-66 -53 -149 -54q-86 0 -147.5 54.5t-61.5 146.5z" />
<glyph unicode="D" d="M-82 0l348 1638h228q76 0 128 -55t52 -143q0 -27 -8 -66l-244 -1149q-23 -111 -95.5 -168t-164.5 -57h-244zM61 117h107q113 0 141 131l244 1143q4 18 4 43q0 88 -90 88h-107z" />
<glyph unicode="E" horiz-adv-x="579" d="M-82 0l348 1638h406l-25 -116h-287l-135 -637h207l-26 -117h-205l-140 -651h287l-24 -117h-406z" />
<glyph unicode="F" horiz-adv-x="579" d="M-82 0l348 1638h406l-25 -116h-287l-135 -637h207l-26 -117h-205l-164 -768h-119z" />
<glyph unicode="G" d="M-41 166q0 29 6 57l260 1225q23 106 97 164q68 53 151 53q84 0 143 -51q64 -58 64 -150q0 -33 -6 -61l-92 -436h-121l94 446q6 29 6 39q0 90 -92 90q-104 0 -129 -119l-256 -1198q-4 -18 -4 -39q0 -92 92 -92q104 0 129 119l111 516h-138l23 113h256l-178 -842h-68 l-16 35q-61 -61 -146 -62q-76 0 -131 53.5t-55 139.5z" />
<glyph unicode="H" d="M-82 0l348 1638h119l-162 -759h219l162 759h119l-348 -1638h-119l162 760h-219l-162 -760h-119z" />
<glyph unicode="I" horiz-adv-x="303" d="M-82 0l348 1638h119l-348 -1638h-119z" />
<glyph unicode="J" d="M-39 176q0 31 6 60l94 436h119l-96 -449q-4 -18 -4 -37q0 -90 92 -90q104 0 129 119l301 1423h121l-305 -1433q-25 -115 -99 -176q-66 -55 -151 -56q-84 0 -145.5 55.5t-61.5 147.5z" />
<glyph unicode="K" horiz-adv-x="618" d="M-82 0l348 1638h119l-145 -690l368 690h123l-416 -780l76 -858h-117l-65 801l-172 -801h-119z" />
<glyph unicode="L" horiz-adv-x="548" d="M-82 0l348 1638h119l-324 -1521h304l-25 -117h-422z" />
<glyph unicode="M" horiz-adv-x="991" d="M-82 0l348 1638h160l-18 -1097l-17 -215l68 215l446 1097h168l-348 -1638h-119l291 1350l-80 -224l-446 -1126h-95l46 1352l-46 -222l-239 -1130h-119z" />
<glyph unicode="N" d="M-82 0l348 1638h115l-16 -1187l32 182l213 1005h113l-348 -1638h-107l17 1219l-33 -172l-221 -1047h-113z" />
<glyph unicode="O" d="M-39 174q0 31 6 62l258 1212q23 106 97 164q68 53 151 53q84 0 143 -51q64 -58 64 -150q0 -33 -6 -61l-258 -1210q-23 -106 -97 -166q-66 -53 -149 -54q-86 0 -147.5 54.5t-61.5 146.5zM80 186q0 -92 92 -92q102 0 129 119l254 1200q6 23 6 39q0 90 -92 90 q-104 0 -129 -119l-256 -1198q-4 -18 -4 -39z" />
<glyph unicode="P" d="M-82 0l348 1638h215q88 0 140.5 -54t52.5 -144q0 -27 -8 -66l-82 -385q-25 -111 -95.5 -168t-164.5 -57h-125l-162 -764h-119zM225 879h105q113 0 141 133l82 379q4 18 4 41q0 90 -90 90h-107z" />
<glyph unicode="Q" d="M-39 174q0 33 6 62l258 1212q23 106 97 164q68 53 151 53q84 0 143 -51q64 -58 64 -150q0 -33 -6 -61l-258 -1210q-31 -145 -150 -199l35 -176h-131l-6 155q-84 2 -143.5 56.5t-59.5 144.5zM80 186q0 -92 92 -92q104 0 129 119l254 1200q6 29 6 39q0 90 -92 90 q-104 0 -129 -119l-256 -1198q-4 -18 -4 -39z" />
<glyph unicode="R" d="M-82 0l348 1638h228q76 0 128 -55t52 -143q0 -27 -8 -66l-84 -395q-27 -121 -129 -168q61 -47 61 -135q0 -20 -8 -60l-133 -616h-119l135 623q4 18 4 41q0 90 -90 90h-104l-162 -754h-119zM223 874h105q47 0 88 36t53 96l84 385q4 18 4 41q0 90 -90 90h-107z" />
<glyph unicode="S" horiz-adv-x="620" d="M-51 168q0 31 6 59l59 273h121l-59 -275q-4 -18 -4 -39q0 -90 90 -90q145 0 145 248q0 39 -4 70l-100 764q-6 47 -6 106q0 156 57 256q72 125 217 125q86 0 143.5 -56.5t57.5 -146.5q0 -33 -6 -61l-58 -262h-119l58 276q6 29 6 41q0 88 -92 88q-145 0 -146 -252 q0 -39 4 -69l103 -766q6 -45 6 -101q0 -158 -59 -258q-74 -125 -219 -125q-86 0 -143.5 52.5t-57.5 142.5z" />
<glyph unicode="T" horiz-adv-x="602" d="M68 0l323 1522h-178l25 116h475l-25 -116h-178l-324 -1522h-118z" />
<glyph unicode="U" d="M-39 174q0 31 6 62l299 1402h119l-301 -1413q-4 -18 -4 -39q0 -92 92 -92q102 0 129 119l303 1425h119l-307 -1445q-23 -106 -97 -166q-66 -53 -149 -54q-86 0 -147.5 54.5t-61.5 146.5z" />
<glyph unicode="V" horiz-adv-x="628" d="M82 0l151 1638h115l-143 -1310l53 209l365 1101h116l-546 -1638h-111z" />
<glyph unicode="W" horiz-adv-x="921" d="M72 0l172 1638h116l-145 -1243l51 207l314 1036h106l-154 -1243l56 201l323 1042h121l-524 -1638h-115l162 1253l-57 -209l-312 -1044h-114z" />
<glyph unicode="X" horiz-adv-x="567" d="M-145 0l362 821l-14 817h119v-485l-9 -176l64 176l209 485h127l-363 -817l15 -821h-119l2 492l8 174l-63 -174l-213 -492h-125z" />
<glyph unicode="Y" horiz-adv-x="628" d="M82 0l164 776l-17 862h117l-2 -503l-6 -179l63 179l217 503h121l-387 -864l-164 -774h-106z" />
<glyph unicode="Z" horiz-adv-x="585" d="M-123 0l664 1522h-322l25 116h465l-662 -1521h338l-25 -117h-483z" />
<glyph unicode="[" horiz-adv-x="460" d="M-119 -164l385 1802h277l-27 -116h-158l-331 -1569h155l-24 -117h-277z" />
<glyph unicode="\" horiz-adv-x="600" d="M170 1638h117l135 -1638h-115z" />
<glyph unicode="]" horiz-adv-x="450" d="M-129 -164l27 117h157l332 1569h-156l25 116h276l-385 -1802h-276z" />
<glyph unicode="_" horiz-adv-x="450" d="M-205 -215l25 119h456l-24 -119h-457z" />
<glyph unicode="`" horiz-adv-x="647" d="M240 1638h131l102 -327h-82z" />
<glyph unicode="a" d="M-39 180q0 27 6 53l8 37q29 133 183 289l202 207q74 74 91 158l10 49q6 29 6 39q0 92 -92 92q-104 0 -129 -119l-45 -213h-119l49 236q23 106 96 166q66 53 150 53q86 0 147.5 -55.5t61.5 -147.5q0 -31 -6 -59l-205 -965h-68l-16 33q-49 -59 -133 -60q-86 0 -141.5 61.5 t-55.5 145.5zM80 188q0 -92 94 -92q102 0 127 119l100 471q-12 -20 -61 -78l-139 -141q-82 -82 -105 -195l-12 -53q-4 -18 -4 -31z" />
<glyph unicode="b" d="M-80 0l346 1638h119l-94 -442q31 31 100 31q78 0 133 -53q62 -60 62 -150q0 -29 -6 -57l-160 -762q-49 -231 -248 -232q-98 0 -147 70l-37 -43h-68zM82 186q0 -92 92 -92q102 0 127 119l162 768q4 19 4 33q0 90 -92 90q-104 0 -129 -119l-160 -760q-4 -20 -4 -39z" />
<glyph unicode="c" horiz-adv-x="643" d="M-37 174q0 33 6 62l164 772q23 106 96 166q66 53 150 53q86 0 147.5 -55.5t61.5 -147.5q0 -31 -6 -59l-45 -207h-119l45 215q6 29 6 39q0 92 -92 92q-104 0 -129 -119l-162 -760q-6 -29 -6 -39q0 -92 94 -92q104 0 129 119l49 229h119l-53 -249q-23 -109 -96 -166 q-66 -53 -152 -54q-84 0 -145.5 54.5t-61.5 146.5z" />
<glyph unicode="d" d="M-35 176q0 39 4 57l164 775q23 106 96 166q66 53 150 53q80 0 129 -49l98 460h119l-348 -1638h-68l-16 33q-49 -59 -133 -60q-78 0 -133 54q-61 59 -62 149zM84 186q0 -90 92 -90q102 0 127 119l160 756q6 29 6 41q0 92 -92 92q-104 0 -129 -119l-162 -766q-2 -10 -2 -33 z" />
<glyph unicode="e" d="M-37 174q0 33 6 62l164 772q23 106 96 166q66 53 150 53t146.5 -55.5t62.5 -147.5q0 -29 -6 -59l-82 -383h-338l-76 -357q-6 -29 -6 -39q0 -92 94 -92q102 0 127 119l49 227h119l-51 -247q-23 -106 -93.5 -163t-154.5 -57t-145.5 54.5t-61.5 146.5zM184 690h219l60 285 q4 23 4 39q0 90 -90 90q-104 0 -129 -119z" />
<glyph unicode="f" horiz-adv-x="479" d="M6 0l232 1087h-146l25 113h145l51 242q41 196 238 196h2h70l-25 -112h-51q-98 0 -119 -101l-47 -225h149l-26 -113h-148l-231 -1087h-119z" />
<glyph unicode="g" horiz-adv-x="712" d="M-135 -240q0 133 131 203q-59 47 -59 125q0 129 129 186q-55 49 -56 136q0 33 6 61l113 526q25 111 96 172q66 57 156 58q133 0 182 -109q57 82 166 82h25l-25 -117h-14q-111 0 -137 -125l-111 -514q-25 -113 -93.5 -172t-158.5 -59h-27q-55 0 -96 -33t-41 -88 q0 -82 109 -82h24q92 0 153.5 -57t61.5 -148q0 -104 -76.5 -171.5t-193.5 -67.5h-51q-92 0 -152.5 53t-60.5 141zM-14 -229q0 -90 106 -90h45q59 0 101.5 33.5t42.5 88.5q0 90 -107 91h-45q-59 0 -98 -33q-45 -35 -45 -90zM129 424q0 -90 94 -90q102 0 127 121l109 520 q6 29 6 41q0 88 -92 88q-104 0 -129 -121l-109 -518q-6 -29 -6 -41z" />
<glyph unicode="h" d="M-82 0l348 1638h119l-94 -442q31 31 100 31q78 0 133 -53q62 -60 62 -150q0 -29 -6 -57l-205 -967h-119l207 981q4 18 4 33q0 90 -92 90q-104 0 -129 -119l-209 -985h-119z" />
<glyph unicode="i" horiz-adv-x="303" d="M-82 0l256 1200h119l-256 -1200h-119zM211 1376l55 262h119l-55 -262h-119z" />
<glyph unicode="j" horiz-adv-x="301" d="M-336 -438l25 116h55q106 0 133 119l297 1403h119l-299 -1421q-45 -217 -252 -217h-78zM213 1376l55 262h119l-55 -262h-119z" />
<glyph unicode="k" horiz-adv-x="606" d="M-82 0l348 1638h119l-186 -880l317 442h131l-368 -516l114 -684h-117l-108 625l-131 -625h-119z" />
<glyph unicode="l" horiz-adv-x="303" d="M-82 0l348 1638h119l-348 -1638h-119z" />
<glyph unicode="m" horiz-adv-x="952" d="M-82 0l254 1200h70l16 -33q63 59 148 60q111 0 149 -84q66 84 172 84q80 0 127 -47t47 -129q0 -33 -8 -68l-209 -983h-119l209 987q4 14 4 37q0 80 -86 80q-96 0 -121 -109l-211 -995h-118l209 987q4 14 4 37q0 80 -86 80q-96 0 -121 -109l-211 -995h-119z" />
<glyph unicode="n" d="M-82 0l256 1200h68l16 -33q49 59 133 60q78 0 133 -53q62 -60 62 -150q0 -39 -4 -57l-207 -967h-119l209 981q2 10 2 33q0 90 -92 90q-102 0 -127 -119l-209 -985h-121z" />
<glyph unicode="o" d="M-37 174q0 33 6 62l164 772q23 106 96 166q66 53 150 53q86 0 147.5 -55.5t61.5 -147.5q0 -31 -6 -59l-164 -772q-23 -109 -96 -166q-66 -53 -152 -54q-84 0 -145.5 54.5t-61.5 146.5zM80 186q0 -92 94 -92q104 0 129 119l160 758q6 29 6 41q0 92 -92 92 q-104 0 -129 -119l-162 -758q-6 -29 -6 -41z" />
<glyph unicode="p" d="M-176 -438l348 1638h68l16 -33q49 59 133 60q78 0 133 -53q62 -60 62 -150q0 -39 -4 -57l-164 -774q-23 -106 -97 -166q-66 -53 -149 -54q-80 0 -129 50l-98 -461h-119zM80 188q0 -92 92 -92q104 0 129 119l162 766q2 10 2 33q0 90 -92 90q-102 0 -127 -119l-160 -756 q-6 -29 -6 -41z" />
<glyph unicode="q" d="M-39 176q0 29 6 57l160 762q49 231 248 232q98 0 147 -70l37 43h68l-346 -1638h-119l94 442q-31 -31 -100 -31q-78 0 -133 54q-61 59 -62 149zM80 186q0 -90 92 -90q104 0 129 119l160 760q4 21 4 39q0 92 -92 92q-102 0 -127 -119l-162 -768q-4 -18 -4 -33z" />
<glyph unicode="r" d="M-82 0l256 1200h68l16 -33q49 59 133 60q78 0 133 -53q62 -60 62 -150q0 -39 -4 -57l-41 -195h-121l45 209q2 10 2 33q0 90 -92 90q-102 0 -127 -119l-209 -985h-121z" />
<glyph unicode="s" d="M-39 172q0 27 8 61l41 189h119l-45 -211q-4 -20 -4 -39q0 -76 90 -76q53 0 92 39q45 47 45 129q0 51 -22 113l-142 416q-22 63 -22 131v6q0 141 84 223q74 74 178 74q86 0 143 -49q62 -56 62 -150q0 -29 -8 -65l-39 -177h-121l41 183q8 41 8 55q0 80 -88 80 q-53 0 -90 -41q-45 -45 -45 -127q0 -61 18 -113l142 -411q22 -63 22 -136v-6q0 -143 -82 -225q-72 -72 -176 -72q-86 0 -143 52q-66 55 -66 147z" />
<glyph unicode="t" horiz-adv-x="466" d="M41 145q0 29 10 78l182 864h-141l25 113h141l92 438h119l-92 -438h141l-24 -113h-142l-186 -874q-4 -18 -4 -39q0 -61 80 -61h45l-25 -113h-69q-152 0 -152 145z" />
<glyph unicode="u" horiz-adv-x="643" d="M-37 176q0 39 4 57l207 967h119l-209 -981q-2 -10 -2 -33q0 -90 92 -90q102 0 127 119l209 985h121l-256 -1200h-68l-16 33q-49 -59 -133 -60q-78 0 -133 54q-61 59 -62 149z" />
<glyph unicode="v" horiz-adv-x="591" d="M61 0l66 1200h117l-74 -938l68 217l256 721h118l-440 -1200h-111z" />
<glyph unicode="w" horiz-adv-x="905" d="M61 0l76 1200h117l-80 -930l59 215l244 715h107l-62 -713l-30 -217l65 215l250 715h119l-430 -1200h-109l55 686l25 209l-64 -209l-233 -686h-109z" />
<glyph unicode="x" horiz-adv-x="546" d="M-154 0l322 594l-64 606h115l41 -448l57 131l172 317h119l-315 -590l65 -610h-114l-31 336l-6 127l-60 -127l-182 -336h-119z" />
<glyph unicode="y" horiz-adv-x="591" d="M-236 -438l25 112h51q41 0 81 32t59 81l79 219l70 1194h117l-78 -938l70 217l256 721h118l-524 -1425q-35 -96 -107.5 -154.5t-156.5 -58.5h-60z" />
<glyph unicode="z" horiz-adv-x="575" d="M-133 0l561 1087h-311l22 113h467l-561 -1087h330l-25 -113h-483z" />
<glyph unicode="{" horiz-adv-x="452" d="M-47 682l24 111h19q119 0 147 137l109 506q47 227 260 227h23l-27 -123h-4q-111 0 -137 -123l-111 -518q-27 -125 -133 -168q61 -43 61 -141q0 -23 -6 -55l-96 -453q-6 -39 -6 -45q0 -43 25.5 -70.5t68.5 -27.5l-27 -121q-82 4 -134 58t-52 142q0 29 8 68l94 449 q4 16 4 43q0 104 -90 104h-20z" />
<glyph unicode="|" horiz-adv-x="303" d="M-168 -410l434 2048h119l-434 -2048h-119z" />
<glyph unicode="}" horiz-adv-x="438" d="M-102 -182l26 123h4q111 0 138 122l110 519q27 123 133 168q-61 43 -61 141q0 27 6 55l96 453q6 29 6 45q0 43 -25.5 70.5t-68.5 27.5l27 121q82 -4 134 -58.5t52 -142.5q0 -29 -8 -67l-94 -449q-4 -20 -4 -43q0 -104 90 -104h20l-24 -111h-19q-119 0 -147 -137 l-109 -506q-49 -227 -260 -227h-22z" />
<glyph unicode="~" d="M33 737q123 115 207 115q55 0 104 -40t72 -40q47 0 125 68l67 -74q-125 -115 -211 -115q-47 0 -101 41t-79 41q-43 0 -121 -69z" />
<glyph unicode="&#xa1;" horiz-adv-x="315" d="M-84 0l293 1200h72l-218 -1200h-147zM205 1278l76 360h114l-78 -360h-112z" />
<glyph unicode="&#xa2;" horiz-adv-x="643" d="M-2 350q0 33 6 62l184 858q41 190 209 217l33 151h119l-35 -163q129 -48 129 -189q0 -31 -6 -59l-49 -228h-119l49 236q6 29 6 39q0 92 -92 92q-104 0 -129 -119l-182 -846q-6 -29 -6 -39q0 -92 94 -92q43 0 81 31t48 88l45 246h119l-49 -266q-37 -199 -220 -217 l-32 -152h-119l35 168q-119 51 -119 182z" />
<glyph unicode="&#xa3;" horiz-adv-x="636" d="M-84 0l25 117h106l84 651h-53l26 117h41l66 510q35 270 252 270q92 0 152.5 -55.5t60.5 -149.5q0 -27 -8 -65l-56 -256h-120l59 274q4 18 4 39q0 90 -92 90q-121 0 -141 -166l-64 -491h195l-27 -117h-182l-84 -651h237l-24 -117h-457z" />
<glyph unicode="&#xa4;" horiz-adv-x="714" d="M0 602l27 117h118l41 201h-118l26 116h117l88 412q23 106 96 164q68 53 152 53t143 -51q64 -58 64 -150q0 -33 -6 -61l-54 -252h-121l56 262q6 29 6 39q0 90 -92 90q-104 0 -129 -119l-82 -387h170l-27 -116h-170l-41 -201h170l-26 -117h-170l-80 -377q-4 -18 -4 -39 q0 -92 92 -92q104 0 129 119l57 274h121l-64 -294q-23 -106 -96 -166q-66 -53 -149 -54q-86 0 -147.5 54.5t-61.5 146.5q0 33 6 62l78 366h-119z" />
<glyph unicode="&#xa5;" horiz-adv-x="567" d="M-35 528l25 117h200l43 201h-200l24 117h158l-12 675h116l-2 -503l-6 -179l64 179l217 503h121l-303 -675h157l-24 -117h-203l-43 -201h203l-25 -117h-203l-110 -528h-107l113 528h-203z" />
<glyph unicode="&#xa7;" d="M-66 47q0 25 9 62l41 188h118l-45 -211q-4 -18 -4 -39q0 -76 90 -76q53 0 93 39q45 47 45 129q0 47 -23 113l-141 416q-23 66 -23 137q0 117 60 194q51 70 135 93l-47 139q-23 66 -23 137q0 141 84 223q74 74 178 74q86 0 144 -49q61 -56 61 -150q0 -29 -8 -65l-39 -176 h-121l41 182q8 37 8 55q0 80 -88 80q-53 0 -90 -41q-45 -45 -45 -127q0 -59 18 -112l142 -412q23 -66 22 -141q0 -121 -57 -199q-51 -68 -135 -90l45 -133q23 -66 22 -142q0 -143 -82 -225q-72 -72 -176 -72q-86 0 -147.5 53.5t-61.5 145.5zM219 811q0 -59 19 -113l55 -161 q113 24 113 165q0 47 -23 113l-55 162q-109 -29 -109 -166z" />
<glyph unicode="&#xa8;" horiz-adv-x="636" d="M221 1399l49 239h95l-50 -239h-94zM547 1399l49 239h94l-49 -239h-94z" />
<glyph unicode="&#xa9;" horiz-adv-x="987" d="M-14 272q0 43 8 82l205 969q35 164 163 256q119 86 279 86q152 0 252 -82t100 -217q0 -39 -8 -78l-203 -964q-35 -164 -166 -256q-121 -86 -284 -86q-158 0 -252 78.5t-94 211.5zM104 287q0 -90 62.5 -138.5t171.5 -48.5q117 0 207 60q98 66 123 180l202 963q7 28 7 59 q0 184 -234 184q-117 0 -207 -59q-98 -66 -123 -178l-202 -963q-6 -43 -7 -59zM287 526q0 16 4 35l117 549q29 133 151 133q53 0 92 -35t39 -94q0 -16 -4 -37l-43 -213h-121l49 230q2 10 2 14q0 18 -18 18q-29 0 -35 -32l-117 -549q-2 -8 -2 -17q0 -18 19 -18q29 0 35 33 l49 231h119l-54 -246q-29 -131 -149 -131q-53 0 -93 35t-40 94z" />
<glyph unicode="&#xab;" horiz-adv-x="923" d="M35 793l446 372l72 -92l-348 -291l229 -282l-94 -78zM406 793l446 372l72 -92l-349 -291l230 -282l-94 -78z" />
<glyph unicode="&#xad;" horiz-adv-x="565" d="M80 760l24 119h381l-24 -119h-381z" />
<glyph unicode="&#xae;" horiz-adv-x="987" d="M-14 272q0 43 8 82l205 969q35 164 163 256q119 86 279 86q152 0 252 -82t100 -217q0 -39 -8 -78l-203 -964q-35 -164 -166 -256q-121 -86 -284 -86q-158 0 -252 78.5t-94 211.5zM104 287q0 -90 62.5 -138.5t171.5 -48.5q117 0 207 60q98 66 123 180l202 963q7 28 7 59 q0 184 -234 184q-117 0 -207 -59q-98 -66 -123 -178l-202 -963q-6 -43 -7 -59zM258 410l172 819h139q51 0 85 -37t34 -90q0 -20 -4 -39l-37 -170q-12 -53 -49 -84q16 -29 16 -61q0 -18 -4 -37l-63 -301h-119l66 313q2 8 2 14q0 20 -15 21h-32l-72 -348h-119zM473 874h29 q27 0 33 35l34 170q2 11 2 15q0 20 -16 20h-31z" />
<glyph unicode="&#xaf;" horiz-adv-x="636" d="M211 1530l22 108h422l-24 -108h-420z" />
<glyph unicode="&#xb0;" horiz-adv-x="616" d="M197 1403q0 104 81.5 183t186.5 79q82 0 138 -55t56 -137q0 -104 -81.5 -184.5t-186.5 -80.5q-84 0 -139 55.5t-55 139.5zM313 1411q0 -86 88 -86q53 0 97.5 43t44.5 96q0 84 -86 84q-55 0 -99.5 -42t-44.5 -95z" />
<glyph unicode="&#xb4;" horiz-adv-x="638" d="M287 1311l209 327h137l-254 -327h-92z" />
<glyph unicode="&#xb6;" horiz-adv-x="929" d="M121 1163q0 182 131 322q145 154 379 153h411l-434 -2048h-119l412 1934h-186l-410 -1934h-119l265 1250q-160 0 -248 98q-82 88 -82 225z" />
<glyph unicode="&#xb7;" horiz-adv-x="301" d="M53 639l76 360h119l-76 -360h-119z" />
<glyph unicode="&#xb8;" horiz-adv-x="643" d="M-131 -342l250 330h90l-205 -330h-135z" />
<glyph unicode="&#xbb;" horiz-adv-x="923" d="M2 514l348 291l-229 282l94 78l305 -370l-446 -373zM373 514l348 291l-229 282l94 78l305 -370l-447 -373z" />
<glyph unicode="&#xbf;" d="M-37 174q0 100 60 232l360 794h127l-375 -827q-51 -113 -51 -183q0 -94 92 -94q100 0 127 119l62 285h116l-63 -303q-23 -109 -99 -168q-68 -55 -153 -56q-84 0 -143.5 53.5t-59.5 147.5zM401 1278l76 360h119l-76 -360h-119z" />
<glyph unicode="&#xc0;" horiz-adv-x="616" d="M-131 0l543 1638h141l-154 -1638h-116l34 346h-221l-112 -346h-115zM131 461h199l98 930l-63 -209zM340 2070h131l102 -327h-82z" />
<glyph unicode="&#xc1;" horiz-adv-x="616" d="M-131 0l543 1638h141l-154 -1638h-116l34 346h-221l-112 -346h-115zM131 461h199l98 930l-63 -209zM334 1743l209 327h137l-254 -327h-92z" />
<glyph unicode="&#xc2;" horiz-adv-x="616" d="M-131 0l543 1638h141l-154 -1638h-116l34 346h-221l-112 -346h-115zM131 461h199l98 930l-63 -209zM269 1852l272 221l184 -225l-65 -66l-135 174l-207 -174z" />
<glyph unicode="&#xc3;" horiz-adv-x="616" d="M-131 0l543 1638h141l-154 -1638h-116l34 346h-221l-112 -346h-115zM131 461h199l98 930l-63 -209zM256 1899l47 43q55 53 117 53q45 0 90 -41t67 -41q29 0 56 27l47 41l53 -60l-49 -43q-57 -53 -115 -53q-45 0 -93 41t-71 41q-25 0 -53 -27l-45 -39z" />
<glyph unicode="&#xc4;" horiz-adv-x="616" d="M-131 0l543 1638h141l-154 -1638h-116l34 346h-221l-112 -346h-115zM131 461h199l98 930l-63 -209zM287 1743l49 239h95l-50 -239h-94zM613 1743l49 239h94l-49 -239h-94z" />
<glyph unicode="&#xc5;" horiz-adv-x="616" d="M-131 0l543 1638h141l-154 -1638h-116l34 346h-221l-112 -346h-115zM131 461h199l98 930l-63 -209zM358 1937q0 82 64.5 145.5t146.5 63.5q63 0 106.5 -44t43.5 -105q0 -82 -65.5 -143.5t-145.5 -61.5q-66 0 -108 41t-42 104zM426 1937q0 -80 82 -80q53 0 99 44.5 t46 95.5q0 35 -23.5 58.5t-60.5 23.5q-53 0 -98 -44.5t-45 -97.5z" />
<glyph unicode="&#xc6;" horiz-adv-x="899" d="M-131 0l641 1638h481l-24 -116h-287l-135 -637h207l-27 -117h-205l-139 -651h287l-25 -117h-405l73 346h-194l-135 -346h-113zM164 461h172l223 1050l-119 -340z" />
<glyph unicode="&#xc7;" d="M-121 -342l250 330h90l-205 -330h-135zM-23 174q0 33 6 62l258 1212q23 106 97 164q68 53 151 53q84 0 143 -51q64 -58 64 -150q0 -33 -6 -61l-92 -436h-121l94 446q6 29 6 39q0 90 -92 90q-104 0 -129 -119l-256 -1198q-4 -18 -4 -39q0 -92 92 -92q104 0 129 119l96 459 h121l-102 -479q-23 -106 -97 -166q-66 -53 -149 -54q-86 0 -147.5 54.5t-61.5 146.5z" />
<glyph unicode="&#xc8;" horiz-adv-x="579" d="M-82 0l348 1638h406l-25 -116h-287l-135 -637h207l-26 -117h-205l-140 -651h287l-24 -117h-406zM332 2070h131l102 -327h-82z" />
<glyph unicode="&#xc9;" horiz-adv-x="579" d="M-82 0l348 1638h406l-25 -116h-287l-135 -637h207l-26 -117h-205l-140 -651h287l-24 -117h-406zM310 1743l209 327h137l-254 -327h-92z" />
<glyph unicode="&#xca;" horiz-adv-x="579" d="M-82 0l348 1638h406l-25 -116h-287l-135 -637h207l-26 -117h-205l-140 -651h287l-24 -117h-406zM254 1852l272 221l184 -225l-65 -66l-135 174l-207 -174z" />
<glyph unicode="&#xcb;" horiz-adv-x="579" d="M-82 0l348 1638h406l-25 -116h-287l-135 -637h207l-26 -117h-205l-140 -651h287l-24 -117h-406zM276 1741l49 239h95l-50 -239h-94zM602 1741l49 239h94l-49 -239h-94z" />
<glyph unicode="&#xcc;" horiz-adv-x="303" d="M-82 0l348 1638h119l-348 -1638h-119zM209 2070h131l102 -327h-82z" />
<glyph unicode="&#xcd;" horiz-adv-x="303" d="M-82 0l348 1638h119l-348 -1638h-119zM185 1743l209 327h137l-254 -327h-92z" />
<glyph unicode="&#xce;" horiz-adv-x="303" d="M-82 0l348 1638h119l-348 -1638h-119zM132 1852l272 221l184 -225l-65 -66l-135 174l-207 -174z" />
<glyph unicode="&#xcf;" horiz-adv-x="303" d="M-82 0l348 1638h119l-348 -1638h-119zM135 1743l49 239h95l-50 -239h-94zM461 1743l49 239h94l-49 -239h-94z" />
<glyph unicode="&#xd0;" horiz-adv-x="647" d="M-76 0l162 760l-102 -31l26 119l101 31l161 759h228q76 0 128 -55t52 -143q0 -27 -8 -66l-244 -1149q-23 -111 -95.5 -168t-164.5 -57h-244zM68 117h106q113 0 141 131l244 1143q4 18 4 43q0 88 -90 88h-106l-127 -600l102 30l-27 -118l-102 -31z" />
<glyph unicode="&#xd1;" d="M-82 0l348 1638h115l-16 -1187l32 182l213 1005h113l-348 -1638h-107l17 1219l-33 -172l-221 -1047h-113zM283 1899l47 43q55 53 117 53q45 0 90 -41t67 -41q29 0 56 27l47 41l53 -60l-49 -43q-57 -53 -115 -53q-45 0 -93 41t-71 41q-25 0 -53 -27l-45 -39z" />
<glyph unicode="&#xd2;" d="M-39 174q0 31 6 62l258 1212q23 106 97 164q68 53 151 53q84 0 143 -51q64 -58 64 -150q0 -33 -6 -61l-258 -1210q-23 -106 -97 -166q-66 -53 -149 -54q-86 0 -147.5 54.5t-61.5 146.5zM80 186q0 -92 92 -92q102 0 129 119l254 1200q6 23 6 39q0 90 -92 90 q-104 0 -129 -119l-256 -1198q-4 -18 -4 -39zM359 2068h131l102 -327h-82z" />
<glyph unicode="&#xd3;" d="M-39 174q0 31 6 62l258 1212q23 106 97 164q68 53 151 53q84 0 143 -51q64 -58 64 -150q0 -33 -6 -61l-258 -1210q-23 -106 -97 -166q-66 -53 -149 -54q-86 0 -147.5 54.5t-61.5 146.5zM80 186q0 -92 92 -92q102 0 129 119l254 1200q6 23 6 39q0 90 -92 90 q-104 0 -129 -119l-256 -1198q-4 -18 -4 -39zM363 1743l209 327h137l-254 -327h-92z" />
<glyph unicode="&#xd4;" d="M-39 174q0 31 6 62l258 1212q23 106 97 164q68 53 151 53q84 0 143 -51q64 -58 64 -150q0 -33 -6 -61l-258 -1210q-23 -106 -97 -166q-66 -53 -149 -54q-86 0 -147.5 54.5t-61.5 146.5zM80 186q0 -92 92 -92q102 0 129 119l254 1200q6 23 6 39q0 90 -92 90 q-104 0 -129 -119l-256 -1198q-4 -18 -4 -39zM291 1852l272 221l184 -225l-65 -66l-135 174l-207 -174z" />
<glyph unicode="&#xd5;" d="M-39 174q0 31 6 62l258 1212q23 106 97 164q68 53 151 53q84 0 143 -51q64 -58 64 -150q0 -33 -6 -61l-258 -1210q-23 -106 -97 -166q-66 -53 -149 -54q-86 0 -147.5 54.5t-61.5 146.5zM80 186q0 -92 92 -92q102 0 129 119l254 1200q6 23 6 39q0 90 -92 90 q-104 0 -129 -119l-256 -1198q-4 -18 -4 -39zM301 1899l47 43q55 53 117 53q45 0 90 -41t67 -41q29 0 56 27l47 41l53 -60l-49 -43q-57 -53 -115 -53q-45 0 -93 41t-71 41q-25 0 -53 -27l-45 -39z" />
<glyph unicode="&#xd6;" d="M-39 174q0 31 6 62l258 1212q23 106 97 164q68 53 151 53q84 0 143 -51q64 -58 64 -150q0 -33 -6 -61l-258 -1210q-23 -106 -97 -166q-66 -53 -149 -54q-86 0 -147.5 54.5t-61.5 146.5zM80 186q0 -92 92 -92q102 0 129 119l254 1200q6 23 6 39q0 90 -92 90 q-104 0 -129 -119l-256 -1198q-4 -18 -4 -39zM309 1743l49 239h95l-50 -239h-94zM635 1743l49 239h94l-49 -239h-94z" />
<glyph unicode="&#xd7;" horiz-adv-x="802" d="M0 555l317 264l-206 268l94 78l209 -266l317 266l72 -92l-318 -266l203 -262l-94 -78l-205 260l-317 -264z" />
<glyph unicode="&#xd8;" d="M-127 0l88 174q0 33 6 62l258 1212q23 106 97 164q68 53 151 53q129 0 186 -106l39 79h70l-88 -168v-6q0 -33 -6 -61l-258 -1210q-23 -106 -97 -166q-66 -53 -149 -54q-135 0 -188 111l-41 -84h-68zM80 186q0 -92 92 -92q104 0 129 119l191 893l-136 -275l-266 -571 l-6 -35q-4 -23 -4 -39zM150 532l90 191l295 592l20 98q6 29 6 39q0 90 -92 90q-104 0 -129 -119z" />
<glyph unicode="&#xd9;" d="M-39 174q0 31 6 62l299 1402h119l-301 -1413q-4 -18 -4 -39q0 -92 92 -92q102 0 129 119l303 1425h119l-307 -1445q-23 -106 -97 -166q-66 -53 -149 -54q-86 0 -147.5 54.5t-61.5 146.5zM369 2068h131l102 -327h-82z" />
<glyph unicode="&#xda;" d="M-39 174q0 31 6 62l299 1402h119l-301 -1413q-4 -18 -4 -39q0 -92 92 -92q102 0 129 119l303 1425h119l-307 -1445q-23 -106 -97 -166q-66 -53 -149 -54q-86 0 -147.5 54.5t-61.5 146.5zM363 1743l209 327h137l-254 -327h-92z" />
<glyph unicode="&#xdb;" d="M-39 174q0 31 6 62l299 1402h119l-301 -1413q-4 -18 -4 -39q0 -92 92 -92q102 0 129 119l303 1425h119l-307 -1445q-23 -106 -97 -166q-66 -53 -149 -54q-86 0 -147.5 54.5t-61.5 146.5zM297 1852l272 221l184 -225l-65 -66l-135 174l-207 -174z" />
<glyph unicode="&#xdc;" d="M-39 174q0 31 6 62l299 1402h119l-301 -1413q-4 -18 -4 -39q0 -92 92 -92q102 0 129 119l303 1425h119l-307 -1445q-23 -106 -97 -166q-66 -53 -149 -54q-86 0 -147.5 54.5t-61.5 146.5zM307 1743l49 239h95l-50 -239h-94zM633 1743l49 239h94l-49 -239h-94z" />
<glyph unicode="&#xdd;" horiz-adv-x="628" d="M82 0l164 776l-17 862h117l-2 -503l-6 -179l63 179l217 503h121l-387 -864l-164 -774h-106zM342 1743l209 327h137l-254 -327h-92z" />
<glyph unicode="&#xde;" horiz-adv-x="620" d="M-82 0l348 1638h119l-88 -413h109q78 0 129 -55.5t51 -143.5q0 -27 -8 -65l-68 -324q-23 -111 -95.5 -168t-164.5 -57h-125l-88 -412h-119zM150 528h106q47 0 86 36t53 98l68 309q4 19 4 39q0 100 -88 100h-107z" />
<glyph unicode="&#xdf;" horiz-adv-x="1064" d="M8 0l230 1087h-146l25 113h147l51 246q23 106 97 166q66 53 149 53q86 0 147.5 -54.5t61.5 -146.5q0 -33 -6 -61l-86 -404q-4 -18 -4 -49q0 -59 18 -112l146 -426q22 -66 22 -142q0 -143 -82 -225q-72 -72 -176 -72q-86 0 -143 52q-66 55 -66 147q0 25 8 61l41 189h119 l-45 -211q-4 -18 -4 -39q0 -76 90 -76q53 0 92 39q45 47 45 129q0 47 -22 113l-142 416q-23 66 -22 137q0 35 10 84l84 399q4 20 4 39q0 92 -92 92q-104 0 -129 -119l-303 -1425h-119z" />
<glyph unicode="&#xe0;" d="M-39 180q0 27 6 53l8 37q29 133 183 289l202 207q74 74 91 158l10 49q6 29 6 39q0 92 -92 92q-104 0 -129 -119l-45 -213h-119l49 236q23 106 96 166q66 53 150 53q86 0 147.5 -55.5t61.5 -147.5q0 -31 -6 -59l-205 -965h-68l-16 33q-49 -59 -133 -60q-86 0 -141.5 61.5 t-55.5 145.5zM80 188q0 -92 94 -92q102 0 127 119l100 471q-12 -20 -61 -78l-139 -141q-82 -82 -105 -195l-12 -53q-4 -18 -4 -31zM287 1311l209 327h137l-254 -327h-92z" />
<glyph unicode="&#xe1;" d="M-39 180q0 27 6 53l8 37q29 133 183 289l202 207q74 74 91 158l10 49q6 29 6 39q0 92 -92 92q-104 0 -129 -119l-45 -213h-119l49 236q23 106 96 166q66 53 150 53q86 0 147.5 -55.5t61.5 -147.5q0 -31 -6 -59l-205 -965h-68l-16 33q-49 -59 -133 -60q-86 0 -141.5 61.5 t-55.5 145.5zM80 188q0 -92 94 -92q102 0 127 119l100 471q-12 -20 -61 -78l-139 -141q-82 -82 -105 -195l-12 -53q-4 -18 -4 -31zM240 1638h131l102 -327h-82z" />
<glyph unicode="&#xe2;" d="M-39 180q0 27 6 53l8 37q29 133 183 289l202 207q74 74 91 158l10 49q6 29 6 39q0 92 -92 92q-104 0 -129 -119l-45 -213h-119l49 236q23 106 96 166q66 53 150 53q86 0 147.5 -55.5t61.5 -147.5q0 -31 -6 -59l-205 -965h-68l-16 33q-49 -59 -133 -60q-86 0 -141.5 61.5 t-55.5 145.5zM80 188q0 -92 94 -92q102 0 127 119l100 471q-12 -20 -61 -78l-139 -141q-82 -82 -105 -195l-12 -53q-4 -18 -4 -31zM193 1446l272 221l184 -225l-65 -66l-135 174l-207 -174z" />
<glyph unicode="&#xe3;" d="M-39 180q0 27 6 53l8 37q29 133 183 289l202 207q74 74 91 158l10 49q6 29 6 39q0 92 -92 92q-104 0 -129 -119l-45 -213h-119l49 236q23 106 96 166q66 53 150 53q86 0 147.5 -55.5t61.5 -147.5q0 -31 -6 -59l-205 -965h-68l-16 33q-49 -59 -133 -60q-86 0 -141.5 61.5 t-55.5 145.5zM80 188q0 -92 94 -92q102 0 127 119l100 471q-12 -20 -61 -78l-139 -141q-82 -82 -105 -195l-12 -53q-4 -18 -4 -31zM201 1569l47 43q55 53 117 53q45 0 90 -41t67 -41q29 0 56 27l47 41l53 -60l-49 -43q-57 -53 -115 -53q-45 0 -93 41t-71 41q-25 0 -53 -27 l-45 -39z" />
<glyph unicode="&#xe4;" d="M-39 180q0 27 6 53l8 37q29 133 183 289l202 207q74 74 91 158l10 49q6 29 6 39q0 92 -92 92q-104 0 -129 -119l-45 -213h-119l49 236q23 106 96 166q66 53 150 53q86 0 147.5 -55.5t61.5 -147.5q0 -31 -6 -59l-205 -965h-68l-16 33q-49 -59 -133 -60q-86 0 -141.5 61.5 t-55.5 145.5zM80 188q0 -92 94 -92q102 0 127 119l100 471q-12 -20 -61 -78l-139 -141q-82 -82 -105 -195l-12 -53q-4 -18 -4 -31zM217 1399l49 239h95l-50 -239h-94zM543 1399l49 239h94l-49 -239h-94z" />
<glyph unicode="&#xe5;" d="M-39 180q0 27 6 53l8 37q29 133 183 289l202 207q74 74 91 158l10 49q6 29 6 39q0 92 -92 92q-104 0 -129 -119l-45 -213h-119l49 236q23 106 96 166q66 53 150 53q86 0 147.5 -55.5t61.5 -147.5q0 -31 -6 -59l-205 -965h-68l-16 33q-49 -59 -133 -60q-86 0 -141.5 61.5 t-55.5 145.5zM80 188q0 -92 94 -92q102 0 127 119l100 471q-12 -20 -61 -78l-139 -141q-82 -82 -105 -195l-12 -53q-4 -18 -4 -31zM272 1546q0 82 64.5 145.5t146.5 63.5q63 0 106.5 -44t43.5 -105q0 -82 -65.5 -143.5t-145.5 -61.5q-66 0 -108 41t-42 104zM340 1546 q0 -80 82 -80q53 0 99 44.5t46 95.5q0 35 -23.5 58.5t-60.5 23.5q-53 0 -98 -44.5t-45 -97.5z" />
<glyph unicode="&#xe6;" horiz-adv-x="993" d="M-39 180q0 25 6 53l8 37q29 133 183 289l202 207q76 78 93 158l10 51q2 10 2 29v10q0 90 -90 90q-104 0 -129 -119l-45 -213h-121l51 236q23 106 96 166q66 53 150 53q113 0 162 -90q70 90 178 90q84 0 146.5 -55.5t62.5 -147.5q0 -31 -6 -59l-82 -383h-338l-76 -357 q-6 -29 -6 -39q0 -92 94 -92q100 0 127 119l49 227h119l-51 -247q-23 -106 -97 -166q-66 -53 -151 -54q-113 0 -160 90q-61 -90 -190 -90q-86 0 -141.5 61.5t-55.5 145.5zM80 188q0 -92 94 -92q102 0 127 119l100 471q-12 -20 -61 -78l-139 -141q-82 -82 -105 -195l-12 -53 q-4 -18 -4 -31zM522 690h219l60 285q4 21 4 39q0 90 -90 90q-104 0 -129 -119z" />
<glyph unicode="&#xe7;" horiz-adv-x="643" d="M-119 -342l250 330h90l-205 -330h-135zM-25 174q0 33 6 62l164 772q23 106 96 166q66 53 150 53q86 0 147.5 -55.5t61.5 -147.5q0 -31 -6 -59l-45 -207h-119l45 215q6 29 6 39q0 92 -92 92q-104 0 -129 -119l-162 -760q-6 -29 -6 -39q0 -92 94 -92q104 0 129 119l49 229 h119l-53 -249q-23 -109 -96 -166q-66 -53 -152 -54q-84 0 -145.5 54.5t-61.5 146.5z" />
<glyph unicode="&#xe8;" d="M-37 174q0 33 6 62l164 772q23 106 96 166q66 53 150 53t146.5 -55.5t62.5 -147.5q0 -29 -6 -59l-82 -383h-338l-76 -357q-6 -29 -6 -39q0 -92 94 -92q102 0 127 119l49 227h119l-51 -247q-23 -106 -93.5 -163t-154.5 -57t-145.5 54.5t-61.5 146.5zM184 690h219l60 285 q4 23 4 39q0 90 -90 90q-104 0 -129 -119zM240 1638h131l102 -327h-82z" />
<glyph unicode="&#xe9;" d="M-37 174q0 33 6 62l164 772q23 106 96 166q66 53 150 53t146.5 -55.5t62.5 -147.5q0 -29 -6 -59l-82 -383h-338l-76 -357q-6 -29 -6 -39q0 -92 94 -92q102 0 127 119l49 227h119l-51 -247q-23 -106 -93.5 -163t-154.5 -57t-145.5 54.5t-61.5 146.5zM184 690h219l60 285 q4 23 4 39q0 90 -90 90q-104 0 -129 -119zM287 1311l209 327h137l-254 -327h-92z" />
<glyph unicode="&#xea;" d="M-37 174q0 33 6 62l164 772q23 106 96 166q66 53 150 53t146.5 -55.5t62.5 -147.5q0 -29 -6 -59l-82 -383h-338l-76 -357q-6 -29 -6 -39q0 -92 94 -92q102 0 127 119l49 227h119l-51 -247q-23 -106 -93.5 -163t-154.5 -57t-145.5 54.5t-61.5 146.5zM184 690h219l60 285 q4 23 4 39q0 90 -90 90q-104 0 -129 -119zM193 1446l272 221l184 -225l-65 -66l-135 174l-207 -174z" />
<glyph unicode="&#xeb;" d="M-37 174q0 33 6 62l164 772q23 106 96 166q66 53 150 53t146.5 -55.5t62.5 -147.5q0 -29 -6 -59l-82 -383h-338l-76 -357q-6 -29 -6 -39q0 -92 94 -92q102 0 127 119l49 227h119l-51 -247q-23 -106 -93.5 -163t-154.5 -57t-145.5 54.5t-61.5 146.5zM184 690h219l60 285 q4 23 4 39q0 90 -90 90q-104 0 -129 -119zM221 1399l49 239h95l-50 -239h-94zM547 1399l49 239h94l-49 -239h-94z" />
<glyph unicode="&#xec;" horiz-adv-x="303" d="M-82 0l256 1200h119l-256 -1200h-119zM137 1638h131l103 -327h-82z" />
<glyph unicode="&#xed;" horiz-adv-x="303" d="M-82 0l256 1200h119l-256 -1200h-119zM102 1311l209 327h138l-254 -327h-93z" />
<glyph unicode="&#xee;" horiz-adv-x="303" d="M-82 0l256 1200h119l-256 -1200h-119zM49 1446l273 221l184 -225l-66 -66l-135 174l-207 -174z" />
<glyph unicode="&#xef;" horiz-adv-x="303" d="M-82 0l256 1200h119l-256 -1200h-119zM70 1399l49 239h94l-49 -239h-94zM395 1399l49 239h95l-50 -239h-94z" />
<glyph unicode="&#xf0;" horiz-adv-x="643" d="M-37 174q0 33 6 62l152 710q23 106 96 166q66 53 150 53q35 0 71 -16l-32 156l-164 -52l26 121l117 33l-49 231h119l39 -190l180 53l-27 -121l-131 -39l43 -208q16 -80 16 -144q0 -51 -8 -90l-149 -706q-23 -109 -96 -166q-66 -53 -152 -54q-84 0 -145.5 54.5 t-61.5 146.5zM80 186q0 -92 94 -92q104 0 129 119l148 698q4 19 4 39q0 92 -93 92q-104 0 -129 -118l-147 -699q-6 -29 -6 -39z" />
<glyph unicode="&#xf1;" d="M-82 0l256 1200h68l16 -33q49 59 133 60q78 0 133 -53q62 -60 62 -150q0 -39 -4 -57l-207 -967h-119l209 981q2 10 2 33q0 90 -92 90q-102 0 -127 -119l-209 -985h-121zM205 1569l47 43q55 53 117 53q45 0 90 -41t67 -41q29 0 56 27l47 41l53 -60l-49 -43 q-57 -53 -115 -53q-45 0 -93 41t-71 41q-25 0 -53 -27l-45 -39z" />
<glyph unicode="&#xf2;" d="M-37 174q0 33 6 62l164 772q23 106 96 166q66 53 150 53q86 0 147.5 -55.5t61.5 -147.5q0 -31 -6 -59l-164 -772q-23 -109 -96 -166q-66 -53 -152 -54q-84 0 -145.5 54.5t-61.5 146.5zM80 186q0 -92 94 -92q104 0 129 119l160 758q6 29 6 41q0 92 -92 92 q-104 0 -129 -119l-162 -758q-6 -29 -6 -41zM240 1638h131l102 -327h-82z" />
<glyph unicode="&#xf3;" d="M-37 174q0 33 6 62l164 772q23 106 96 166q66 53 150 53q86 0 147.5 -55.5t61.5 -147.5q0 -31 -6 -59l-164 -772q-23 -109 -96 -166q-66 -53 -152 -54q-84 0 -145.5 54.5t-61.5 146.5zM80 186q0 -92 94 -92q104 0 129 119l160 758q6 29 6 41q0 92 -92 92 q-104 0 -129 -119l-162 -758q-6 -29 -6 -41zM287 1311l209 327h137l-254 -327h-92z" />
<glyph unicode="&#xf4;" d="M-37 174q0 33 6 62l164 772q23 106 96 166q66 53 150 53q86 0 147.5 -55.5t61.5 -147.5q0 -31 -6 -59l-164 -772q-23 -109 -96 -166q-66 -53 -152 -54q-84 0 -145.5 54.5t-61.5 146.5zM80 186q0 -92 94 -92q104 0 129 119l160 758q6 29 6 41q0 92 -92 92 q-104 0 -129 -119l-162 -758q-6 -29 -6 -41zM193 1446l272 221l184 -225l-65 -66l-135 174l-207 -174z" />
<glyph unicode="&#xf5;" d="M-37 174q0 33 6 62l164 772q23 106 96 166q66 53 150 53q86 0 147.5 -55.5t61.5 -147.5q0 -31 -6 -59l-164 -772q-23 -109 -96 -166q-66 -53 -152 -54q-84 0 -145.5 54.5t-61.5 146.5zM80 186q0 -92 94 -92q104 0 129 119l160 758q6 29 6 41q0 92 -92 92 q-104 0 -129 -119l-162 -758q-6 -29 -6 -41zM205 1569l47 43q55 53 117 53q45 0 90 -41t67 -41q29 0 56 27l47 41l53 -60l-49 -43q-57 -53 -115 -53q-45 0 -93 41t-71 41q-25 0 -53 -27l-45 -39z" />
<glyph unicode="&#xf6;" d="M-37 174q0 33 6 62l164 772q23 106 96 166q66 53 150 53q86 0 147.5 -55.5t61.5 -147.5q0 -31 -6 -59l-164 -772q-23 -109 -96 -166q-66 -53 -152 -54q-84 0 -145.5 54.5t-61.5 146.5zM80 186q0 -92 94 -92q104 0 129 119l160 758q6 29 6 41q0 92 -92 92 q-104 0 -129 -119l-162 -758q-6 -29 -6 -41zM221 1399l49 239h95l-50 -239h-94zM547 1399l49 239h94l-49 -239h-94z" />
<glyph unicode="&#xf7;" horiz-adv-x="737" d="M80 758l24 119h551l-24 -119h-551zM229 455l39 180h121l-39 -180h-121zM346 999l39 181h121l-39 -181h-121z" />
<glyph unicode="&#xf8;" d="M-129 0l94 152q-2 6 -2 22q0 33 6 62l164 772q23 106 96 166q66 53 150 53q129 0 182 -101l45 74h72l-92 -145q2 -8 2 -31q0 -29 -6 -59l-164 -772q-23 -109 -96 -166q-66 -53 -152 -54q-127 0 -184 105l-45 -78h-70zM80 186q0 -92 94 -92q104 0 129 119l125 592 l-113 -189l-231 -401q-4 -23 -4 -29zM123 397l108 183l234 403q4 21 4 29q0 92 -92 92q-104 0 -129 -119z" />
<glyph unicode="&#xf9;" horiz-adv-x="643" d="M-37 176q0 39 4 57l207 967h119l-209 -981q-2 -10 -2 -33q0 -90 92 -90q102 0 127 119l209 985h121l-256 -1200h-68l-16 33q-49 -59 -133 -60q-78 0 -133 54q-61 59 -62 149zM240 1638h131l102 -327h-82z" />
<glyph unicode="&#xfa;" horiz-adv-x="643" d="M-37 176q0 39 4 57l207 967h119l-209 -981q-2 -10 -2 -33q0 -90 92 -90q102 0 127 119l209 985h121l-256 -1200h-68l-16 33q-49 -59 -133 -60q-78 0 -133 54q-61 59 -62 149zM287 1311l209 327h137l-254 -327h-92z" />
<glyph unicode="&#xfb;" horiz-adv-x="643" d="M-37 176q0 39 4 57l207 967h119l-209 -981q-2 -10 -2 -33q0 -90 92 -90q102 0 127 119l209 985h121l-256 -1200h-68l-16 33q-49 -59 -133 -60q-78 0 -133 54q-61 59 -62 149zM193 1446l272 221l184 -225l-65 -66l-135 174l-207 -174z" />
<glyph unicode="&#xfc;" horiz-adv-x="643" d="M-37 176q0 39 4 57l207 967h119l-209 -981q-2 -10 -2 -33q0 -90 92 -90q102 0 127 119l209 985h121l-256 -1200h-68l-16 33q-49 -59 -133 -60q-78 0 -133 54q-61 59 -62 149zM221 1399l49 239h95l-50 -239h-94zM547 1399l49 239h94l-49 -239h-94z" />
<glyph unicode="&#xfd;" horiz-adv-x="591" d="M-236 -438l25 112h51q41 0 81 32t59 81l79 219l70 1194h117l-78 -938l70 217l256 721h118l-524 -1425q-35 -96 -107.5 -154.5t-156.5 -58.5h-60zM246 1311l209 327h137l-254 -327h-92z" />
<glyph unicode="&#xfe;" d="M-174 -438l440 2076h119l-94 -444q51 33 110 33q76 0 131.5 -53.5t55.5 -139.5q0 -29 -6 -57l-166 -784q-23 -106 -97 -166q-66 -53 -149 -54q-88 0 -125 60l-100 -471h-119zM82 188q0 -92 90 -92q106 0 131 119l160 760q4 21 4 39q0 90 -92 90q-102 0 -127 -119 l-162 -758q-4 -18 -4 -39z" />
<glyph unicode="&#xff;" horiz-adv-x="591" d="M-236 -438l25 112h51q41 0 81 32t59 81l79 219l70 1194h117l-78 -938l70 217l256 721h118l-524 -1425q-35 -96 -107.5 -154.5t-156.5 -58.5h-60zM178 1399l49 239h95l-50 -239h-94zM504 1399l49 239h94l-49 -239h-94z" />
<glyph unicode="&#x152;" horiz-adv-x="911" d="M-39 201q2 20 8 65l244 1155q23 111 102 168q68 49 156 49h533l-25 -116h-287l-135 -637h205l-25 -117h-207l-137 -651h285l-23 -117h-497q-80 0 -138.5 54.5t-58.5 146.5zM80 215q0 -98 86 -98h108l299 1405h-110q-45 0 -84 -33t-51 -92l-244 -1145q-4 -16 -4 -37z" />
<glyph unicode="&#x153;" horiz-adv-x="980" d="M-37 174q0 33 6 62l164 772q23 106 96 166q66 53 150 53q113 0 162 -90q66 90 176 90q84 0 147.5 -55.5t63.5 -147.5q0 -31 -6 -59l-82 -383h-338l-76 -357q-6 -29 -6 -39q0 -92 94 -92q100 0 127 119l49 227h119l-51 -247q-23 -106 -99 -166q-66 -53 -151 -54 q-113 0 -160 90q-70 -90 -178 -90q-84 0 -145.5 54.5t-61.5 146.5zM80 186q0 -92 94 -92q104 0 129 119l160 760q6 29 6 39q0 92 -92 92q-104 0 -129 -119l-162 -760q-6 -29 -6 -39zM524 690h219l60 285q4 21 4 39q0 90 -90 90q-104 0 -129 -119z" />
<glyph unicode="&#x178;" horiz-adv-x="628" d="M82 0l164 776l-17 862h117l-2 -503l-6 -179l63 179l217 503h121l-387 -864l-164 -774h-106zM282 1743l49 239h95l-50 -239h-94zM608 1743l49 239h94l-49 -239h-94z" />
<glyph unicode="&#x2c6;" horiz-adv-x="636" d="M193 1446l272 221l184 -225l-65 -66l-135 174l-207 -174z" />
<glyph unicode="&#x2dc;" horiz-adv-x="636" d="M205 1569l47 43q55 53 117 53q45 0 90 -41t67 -41q29 0 56 27l47 41l53 -60l-49 -43q-57 -53 -115 -53q-45 0 -93 41t-71 41q-25 0 -53 -27l-45 -39z" />
<glyph unicode="&#x2000;" horiz-adv-x="1073" />
<glyph unicode="&#x2001;" horiz-adv-x="2146" />
<glyph unicode="&#x2002;" horiz-adv-x="1073" />
<glyph unicode="&#x2003;" horiz-adv-x="2146" />
<glyph unicode="&#x2004;" horiz-adv-x="715" />
<glyph unicode="&#x2005;" horiz-adv-x="536" />
<glyph unicode="&#x2006;" horiz-adv-x="357" />
<glyph unicode="&#x2007;" horiz-adv-x="357" />
<glyph unicode="&#x2008;" horiz-adv-x="268" />
<glyph unicode="&#x2009;" horiz-adv-x="429" />
<glyph unicode="&#x200a;" horiz-adv-x="119" />
<glyph unicode="&#x2010;" horiz-adv-x="565" d="M80 760l24 119h381l-24 -119h-381z" />
<glyph unicode="&#x2011;" horiz-adv-x="565" d="M80 760l24 119h381l-24 -119h-381z" />
<glyph unicode="&#x2012;" horiz-adv-x="565" d="M80 760l24 119h381l-24 -119h-381z" />
<glyph unicode="&#x2013;" horiz-adv-x="1024" d="M-12 760l24 119h1024l-24 -119h-1024z" />
<glyph unicode="&#x2014;" horiz-adv-x="2048" d="M-12 760l24 119h2048l-24 -119h-2048z" />
<glyph unicode="&#x2018;" horiz-adv-x="352" d="M82 1006l303 632h90l-248 -632h-145z" />
<glyph unicode="&#x2019;" horiz-adv-x="352" d="M82 1006l248 632h145l-303 -632h-90z" />
<glyph unicode="&#x201a;" horiz-adv-x="352" d="M-205 -272l248 632h145l-303 -632h-90z" />
<glyph unicode="&#x201c;" horiz-adv-x="630" d="M82 1006l303 632h90l-248 -632h-145zM360 1006l304 632h90l-248 -632h-146z" />
<glyph unicode="&#x201d;" horiz-adv-x="630" d="M82 1006l248 632h145l-303 -632h-90zM360 1006l248 632h146l-303 -632h-91z" />
<glyph unicode="&#x201e;" horiz-adv-x="628" d="M-205 -272l248 632h145l-303 -632h-90zM72 -272l247 632h146l-303 -632h-90z" />
<glyph unicode="&#x2022;" horiz-adv-x="636" d="M86 778q0 106 84 187.5t190 81.5q82 0 136.5 -54.5t54.5 -134.5q0 -104 -84 -186t-188 -82q-84 0 -138.5 53t-54.5 135z" />
<glyph unicode="&#x202f;" horiz-adv-x="429" />
<glyph unicode="&#x2039;" horiz-adv-x="552" d="M35 793l446 372l72 -92l-348 -291l229 -282l-94 -78z" />
<glyph unicode="&#x203a;" horiz-adv-x="552" d="M0 514l348 291l-229 282l94 78l305 -370l-446 -373z" />
<glyph unicode="&#x205f;" horiz-adv-x="536" />
<glyph unicode="&#x2122;" horiz-adv-x="1130" d="M158 864l141 670h-135l22 104h377l-22 -104h-135l-142 -670h-106zM457 864l164 774h133l-25 -610l72 191l172 419h135l-164 -774h-106l69 332l49 203h-4l-75 -205l-129 -330h-93l9 330l10 205h-4l-37 -203l-70 -332h-106z" />
<glyph unicode="&#xe000;" horiz-adv-x="1198" d="M0 0v1198h1198v-1198h-1198z" />
</font>
</defs>
</svg>
